# xmcd
#
# Track frame offsets: 
#        150
#        12697
#        28905
#        43099
#        61447
#        79589
#        101438
#        113206
#        135834
#        162317
#        183636
#        199841
#
# Disc length: 2997 seconds
#
# Revision: 0
# Processed by: cddbd v1.5.2PL0 Copyright (c) Steve Scherf et al.
# Submitted via: ExactAudioCopyFreeDBPlugin 1.0
#
DISCID=a20bb30c
DTITLE=Various Artist - r&b favorites
DYEAR=2011
DGENRE=R&B
TTITLE0=The O'Jays - Love Train (Live)
TTITLE1=The Main Ingredient - Everybody Plays the Fool
TTITLE2=The Spinners - I'll Be Around (Live)
TTITLE3=Ray, Goodman and Brown - Special Lady
TTITLE4=Peaches and Herb - Reunited
TTITLE5=Marvin Gaye - Sexual Healing (Live)
TTITLE6=The Three Degrees - When Will I See You Again
TTITLE7=Chaka Khan - I'm Every Woman (Live)
TTITLE8=The Stylistics - You Make Me Feel Brand New (Live)
TTITLE9=The Chi-Lites - Have You Seen Her 
TTITLE10=Harold Melvin and The Blue Notes - If You Don't Know Me By Now
TTITLE11=Percy Sledge - When A Man Loves A Women
EXTD=
EXTT0=
EXTT1=
EXTT2=
EXTT3=
EXTT4=
EXTT5=
EXTT6=
EXTT7=
EXTT8=
EXTT9=
EXTT10=
EXTT11=
PLAYORDER=
